<?xml version="1.0" encoding="UTF-8" standalone="no"?>
<!DOCTYPE svg PUBLIC "-//W3C//DTD SVG 1.1//EN" "http://www.w3.org/Graphics/SVG/1.1/DTD/svg11.dtd">
<svg version="1.1" xmlns="http://www.w3.org/2000/svg" xmlns:xlink="http://www.w3.org/1999/xlink" preserveAspectRatio="xMidYMid meet" viewBox="157.6576021793586 272.09356692066507 71.42631390455753 60.28477984767051" width="66.93" height="55.78"><defs><path d="M187.3 303.35L223.17 309.66L226.08 307.68L190.21 301.38L187.3 303.35Z" id="b2SQ6DWlYu"></path><path d="M221.81 279.55L225.93 307.33L223.01 309.3L218.89 281.52L221.81 279.55Z" id="a4dKe4zBo5"></path><path d="M187.29 303.34L183.17 275.56L186.1 273.59L190.21 301.38L187.29 303.34Z" id="d1Ge8pGw8g"></path><path d="M221.96 279.9L186.09 273.59L183.17 275.57L219.04 281.88L221.96 279.9Z" id="aeyCBd2AT"></path><path d="M183.47 306.43L219.34 312.73L222.25 310.76L186.38 304.45L183.47 306.43Z" id="dbTmMa2qC"></path><path d="M218.07 283.02L222.19 310.81L219.27 312.77L215.15 284.99L218.07 283.02Z" id="a2Jp7QoNAB"></path><path d="M183.4 306.46L179.28 278.68L182.21 276.71L186.32 304.49L183.4 306.46Z" id="gq2LJ2h8O"></path><path d="M218.06 283.02L182.19 276.71L179.28 278.69L215.15 284.99L218.06 283.02Z" id="a2kwrVHr"></path><path d="M179.73 309.99L215.6 316.3L218.51 314.32L182.64 308.02L179.73 309.99Z" id="e1BFy7Lf6e"></path><path d="M214.33 286.59L218.45 314.37L215.52 316.34L211.41 288.56L214.33 286.59Z" id="c7PMIxWjLY"></path><path d="M179.72 309.98L175.6 282.2L178.52 280.23L182.64 308.02L179.72 309.98Z" id="c1pZsk4i3z"></path><path d="M214.32 286.58L178.45 280.28L175.54 282.25L211.41 288.56L214.32 286.58Z" id="a17SG9Rvt3"></path><path d="M175.23 313.12L211.1 319.43L214.01 317.45L178.14 311.15L175.23 313.12Z" id="e1eGAzsfLT"></path><path d="M209.83 289.72L213.95 317.5L211.02 319.47L206.91 291.69L209.83 289.72Z" id="a45TDdRNe"></path><path d="M175.22 313.11L171.1 285.33L174.02 283.36L178.14 311.15L175.22 313.11Z" id="b24B0wr585"></path><path d="M209.82 289.71L173.95 283.4L171.04 285.38L206.91 291.69L209.82 289.71Z" id="eDn6dQ8dM"></path><path d="M171.35 316.32L207.22 322.62L210.14 320.65L174.27 314.34L171.35 316.32Z" id="d31AHWNnum"></path><path d="M205.96 292.91L210.07 320.7L207.15 322.67L203.03 294.88L205.96 292.91Z" id="d1GE1ai4yq"></path><path d="M171.34 316.31L167.23 288.53L170.15 286.56L174.27 314.34L171.34 316.31Z" id="b5QLlRtoR"></path><path d="M205.95 292.91L170.08 286.6L167.17 288.58L203.03 294.88L205.95 292.91Z" id="de3dOw9zY"></path><path d="M167.23 319.77L203.1 326.07L206.01 324.09L170.14 317.79L167.23 319.77Z" id="b3uXy2VgQ"></path><path d="M201.83 296.36L205.95 324.14L203.02 326.11L198.91 298.33L201.83 296.36Z" id="a1kE1a1gKP"></path><path d="M167.16 319.8L163.04 292.02L165.96 290.05L170.08 317.83L167.16 319.8Z" id="a21NjxTiVF"></path><path d="M201.82 296.35L165.95 290.05L163.04 292.02L198.91 298.33L201.82 296.35Z" id="a5Vgqd0fmK"></path><path d="M163.29 323.07L199.16 329.38L202.07 327.4L166.2 321.09L163.29 323.07Z" id="e1nqCfCF10"></path><path d="M197.8 299.27L201.91 327.05L198.99 329.02L194.87 301.24L197.8 299.27Z" id="cG09oRfg"></path><path d="M163.28 323.06L159.16 295.28L162.08 293.31L166.2 321.09L163.28 323.06Z" id="b1XTBMJLXB"></path><path d="M197.94 299.62L162.07 293.31L159.16 295.29L195.03 301.6L197.94 299.62Z" id="g2V6qb7hH4"></path></defs><g><g><use xlink:href="#b2SQ6DWlYu" opacity="1" fill="#008dff" fill-opacity="1"></use></g><g><use xlink:href="#a4dKe4zBo5" opacity="1" fill="#008dff" fill-opacity="1"></use></g><g><use xlink:href="#d1Ge8pGw8g" opacity="1" fill="#008dff" fill-opacity="1"></use></g><g><use xlink:href="#aeyCBd2AT" opacity="1" fill="#008dff" fill-opacity="1"></use></g><g><use xlink:href="#dbTmMa2qC" opacity="1" fill="#58adf2" fill-opacity="1"></use></g><g><use xlink:href="#a2Jp7QoNAB" opacity="1" fill="#58adf2" fill-opacity="1"></use></g><g><use xlink:href="#gq2LJ2h8O" opacity="1" fill="#58adf2" fill-opacity="1"></use></g><g><use xlink:href="#a2kwrVHr" opacity="1" fill="#58adf2" fill-opacity="1"></use></g><g><use xlink:href="#e1BFy7Lf6e" opacity="1" fill="#96caf5" fill-opacity="1"></use></g><g><use xlink:href="#c7PMIxWjLY" opacity="1" fill="#96caf5" fill-opacity="1"></use></g><g><use xlink:href="#c1pZsk4i3z" opacity="1" fill="#96caf5" fill-opacity="1"></use></g><g><use xlink:href="#a17SG9Rvt3" opacity="1" fill="#96caf5" fill-opacity="1"></use></g><g><use xlink:href="#e1eGAzsfLT" opacity="1" fill="#c5e1f8" fill-opacity="1"></use></g><g><use xlink:href="#a45TDdRNe" opacity="1" fill="#c5e1f8" fill-opacity="1"></use></g><g><use xlink:href="#b24B0wr585" opacity="1" fill="#c5e1f8" fill-opacity="1"></use></g><g><use xlink:href="#eDn6dQ8dM" opacity="1" fill="#c5e1f8" fill-opacity="1"></use></g><g><use xlink:href="#d31AHWNnum" opacity="1" fill="#96caf5" fill-opacity="1"></use></g><g><use xlink:href="#d1GE1ai4yq" opacity="1" fill="#96caf5" fill-opacity="1"></use></g><g><use xlink:href="#b5QLlRtoR" opacity="1" fill="#96caf5" fill-opacity="1"></use></g><g><use xlink:href="#de3dOw9zY" opacity="1" fill="#96caf5" fill-opacity="1"></use></g><g><use xlink:href="#b3uXy2VgQ" opacity="1" fill="#58adf2" fill-opacity="1"></use></g><g><use xlink:href="#a1kE1a1gKP" opacity="1" fill="#58adf2" fill-opacity="1"></use></g><g><use xlink:href="#a21NjxTiVF" opacity="1" fill="#58adf2" fill-opacity="1"></use></g><g><use xlink:href="#a5Vgqd0fmK" opacity="1" fill="#58adf2" fill-opacity="1"></use></g><g><use xlink:href="#e1nqCfCF10" opacity="1" fill="#008dff" fill-opacity="1"></use></g><g><use xlink:href="#cG09oRfg" opacity="1" fill="#008dff" fill-opacity="1"></use></g><g><use xlink:href="#b1XTBMJLXB" opacity="1" fill="#008dff" fill-opacity="1"></use></g><g><use xlink:href="#g2V6qb7hH4" opacity="1" fill="#008dff" fill-opacity="1"></use></g></g></svg>